<svg xmlns="http://www.w3.org/2000/svg" xmlns:xlink="http://www.w3.org/1999/xlink" version="1.1" x="0px" y="0px" viewBox="0 0 226.8 226.8" enable-background="new 0 0 226.8 226.8" xml:space="preserve"><path d="M113.4,214.6c-55.8,0-101.2-45.4-101.2-101.2S57.6,12.2,113.4,12.2s101.2,45.4,101.2,101.2c0,15.5-3.6,30.9-10.4,44.7  l9.1,29.6c0.5,1.8,0.2,3.7-1,5.1s-2.9,2.2-4.8,2.1l-31.3-2.2C158.4,206.8,136.2,214.6,113.4,214.6z M113.4,23.4  c-49.6,0-90,40.4-90,90s40.4,90,90,90c20.9,0,41.3-7.4,57.4-20.7c1.1-0.9,2.5-1.4,4-1.3l25.3,1.8l-7.3-23.9  c-0.4-1.4-0.3-2.9,0.4-4.2c6.8-13,10.2-27,10.2-41.6C203.4,63.8,163,23.4,113.4,23.4z"></path><path d="M150.2,120.9c-2.7,18.2-18.6,31.9-37,31.9c-16.7,0-31.3-11.2-35.9-26.9l5.5,3.7l4.5-6.6l-19-12.9l-9.8,20.6l7.2,3.4l2.8-6  c5.6,19.6,23.8,33.7,44.7,33.7c22.9,0,42.7-17.1,46-39.7L150.2,120.9z"></path><path d="M76.6,105.9c2.7-18.2,18.6-31.9,37-31.9c16.7,0,31.3,11.2,35.9,26.9l-5.5-3.7l-4.5,6.6l19,12.9l9.8-20.6l-7.2-3.4l-2.8,6  c-5.6-19.6-23.8-33.7-44.7-33.7c-22.9,0-42.7,17.1-46,39.7L76.6,105.9z"></path></svg>