<svg xmlns="http://www.w3.org/2000/svg" xmlns:xlink="http://www.w3.org/1999/xlink" version="1.1" x="0px" y="0px" viewBox="0 0 100 100" enable-background="new 0 0 100 100" xml:space="preserve"><path d="M86.454,70.201V42.097h-0.027L95,38.128L50,17.295L5,38.128l18.379,8.509v15.059c0,7.265,11.694,12.956,26.621,12.956  s26.621-5.691,26.621-12.956V46.637l6.215-2.878v26.442c-2.86,0.794-4.968,3.415-4.968,6.525c0,3.737,3.04,6.776,6.776,6.776  c3.737,0,6.777-3.04,6.777-6.776C91.422,73.616,89.314,70.995,86.454,70.201z M50,21.281l36.389,16.847L50,54.975L13.611,38.128  L50,21.281z M73.004,61.695c0,4.417-9.448,9.338-23.004,9.338c-13.557,0-23.004-4.922-23.004-9.338V48.311L50,58.961l23.004-10.65  V61.695z M84.645,79.884c-1.742,0-3.159-1.417-3.159-3.159c0-1.742,1.417-3.16,3.159-3.16c1.742,0,3.16,1.417,3.16,3.16  C87.805,78.467,86.388,79.884,84.645,79.884z"></path></svg>