<svg xmlns="http://www.w3.org/2000/svg" xmlns:xlink="http://www.w3.org/1999/xlink" version="1.1" x="0px" y="0px" viewBox="0 0 100 100" enable-background="new 0 0 100 100" xml:space="preserve"><g><path d="M54.008,9.347c-11.681,0-22.82,5.035-30.544,13.836c-0.696,0.788-0.613,1.976,0.175,2.688   c0.788,0.698,1.984,0.614,2.689-0.174c7.003-7.975,17.104-12.541,27.688-12.541c20.32,0,36.85,16.533,36.85,36.85   c0,20.319-16.529,36.851-36.85,36.851c-18.98,0-34.654-14.268-36.639-32.874l7.75,5.205c0.869,0.586,2.055,0.351,2.641-0.521   c0.221-0.328,0.323-0.689,0.323-1.059c0-0.609-0.297-1.208-0.849-1.582l-11.891-9.247c-0.414-0.277-0.932-0.379-1.432-0.285   c-0.492,0.096-0.926,0.396-1.207,0.812L5.641,60.364C5.065,61.229,5.302,62.417,6.174,63c0.864,0.583,2.057,0.339,2.635-0.533   l4.875-7.31c2.539,20.147,19.666,35.496,40.332,35.496c22.42,0,40.658-18.239,40.658-40.66   C94.674,27.574,76.436,9.335,54.008,9.347z"></path><path d="M41.933,31.521c-5.251,0-8.804,3.998-8.804,8.834v0.099c0,4.738,3.5,8.735,8.697,8.735c5.305,0,8.805-4.047,8.805-8.834   v-0.099C50.631,35.519,47.184,31.521,41.933,31.521z M45.91,40.454c0,2.665-1.484,4.936-3.978,4.936   c-2.387,0-4.083-2.221-4.083-5.034v-0.099c0-2.665,1.484-4.936,3.977-4.936c2.387,0,4.084,2.271,4.084,5.034V40.454z"></path><path d="M66.426,32.72c-0.742,0-1.432,0.296-1.803,0.889L40.279,64.554c-0.266,0.345-0.478,0.79-0.478,1.282   c0,1.087,0.901,1.926,2.069,1.926c0.742,0,1.432-0.297,1.855-0.888L68.07,35.928c0.266-0.346,0.479-0.79,0.479-1.283   C68.549,33.56,67.594,32.72,66.426,32.72z"></path><path d="M57.666,60.127v0.099c0,4.738,3.5,8.736,8.699,8.736c5.25,0,8.803-4.048,8.803-8.835v-0.099c0-4.737-3.5-8.735-8.697-8.735   C61.221,51.293,57.666,55.291,57.666,60.127z M70.449,60.127v0.099c0,2.666-1.486,4.935-3.979,4.935   c-2.387,0-4.084-2.22-4.084-5.033v-0.099c0-2.665,1.484-4.936,3.979-4.936C68.752,55.093,70.449,57.363,70.449,60.127z"></path></g></svg>