<svg xmlns="http://www.w3.org/2000/svg" xmlns:xlink="http://www.w3.org/1999/xlink" version="1.1" x="0px" y="0px" viewBox="0 0 91 91" enable-background="new 0 0 91 91" xml:space="preserve"><g><path d="M29.781,87.176c0.056,0.022,0.106,0.052,0.165,0.069c0.006,0.002,0.012,0.002,0.018,0.004   c5.001,2.052,10.469,3.191,16.2,3.191c5.818,0,11.367-1.171,16.43-3.283c0.009-0.002,0.018-0.002,0.026-0.006   c0.056-0.017,0.104-0.045,0.156-0.066c0.027-0.012,0.054-0.023,0.081-0.034c0.057-0.026,0.116-0.047,0.169-0.077   c15.245-6.56,25.949-21.726,25.949-39.349c0-9.497-3.045-18.491-8.807-26.011c-0.703-0.918-2.017-1.094-2.936-0.389   c-0.918,0.704-1.092,2.018-0.389,2.936c5.196,6.782,7.943,14.896,7.943,23.464c0,15.155-8.777,28.294-21.511,34.616l-11.65-37.243   l2.727-8.623l10.748,5.961c0.571,0.316,1.253,0.347,1.85,0.09c0.597-0.259,1.039-0.781,1.197-1.412l7.658-30.564   c0.113-0.455,0.071-0.935-0.12-1.364l-3.085-6.898c-0.291-0.65-0.892-1.107-1.596-1.215c-0.072-0.011-0.143-0.002-0.214-0.005   c-0.034-0.006-0.053-0.017-0.102-0.017H21.579c-0.056,0-0.077,0.012-0.113,0.019c-0.068,0.003-0.135-0.005-0.202,0.005   c-0.704,0.107-1.305,0.565-1.596,1.215l-3.085,6.896c-0.191,0.428-0.234,0.909-0.12,1.364l7.658,30.564   c0.158,0.631,0.601,1.153,1.197,1.412c0.267,0.115,0.551,0.173,0.834,0.173c0.351,0,0.7-0.088,1.016-0.263l10.835-6.009   l2.742,8.676L29.261,82.351C16.411,76.069,7.538,62.866,7.538,47.625c0-8.571,2.749-16.688,7.95-23.472   c0.703-0.918,0.529-2.232-0.389-2.936c-0.917-0.705-2.23-0.53-2.936,0.388c-5.766,7.522-8.813,16.52-8.813,26.02   C3.351,65.433,14.28,80.73,29.781,87.176z M64.749,37.352l-14.464-8.021l14.424-16.345c0.031-0.032,0.068-0.056,0.098-0.09   l5.303-6.023l1.459,3.262L64.749,37.352z M46.134,27.706l-12.441-14.1h24.884L46.134,27.706z M66.049,5.138l-3.777,4.281H30.008   l-3.783-4.281H66.049z M20.701,10.135l1.461-3.266l19.821,22.461l-14.463,8.021L20.701,10.135z M46.135,31.817l4.482,2.486   l-2.692,8.512h-3.479l-2.706-8.561L46.135,31.817z M44.458,47.174h3.462l11.493,36.737c-4.135,1.516-8.597,2.342-13.249,2.342   c-4.569,0-8.954-0.803-13.026-2.266L44.458,47.174z"></path><path d="M65.31,58.919v-4.802h7.079c1.156,0,2.094-0.938,2.094-2.094s-0.938-2.094-2.094-2.094h-9.173   c-1.156,0-2.094,0.938-2.094,2.094v8.144c0,0.769,0.421,1.475,1.098,1.842l7.475,4.043c0.311,0.168,0.653,0.252,0.996,0.252   s0.686-0.084,0.996-0.252l7.476-4.043c0.677-0.366,1.098-1.073,1.098-1.842v-8.144c0-1.156-0.938-2.094-2.094-2.094   s-2.094,0.938-2.094,2.094v6.896l-5.382,2.91L65.31,58.919z"></path></g></svg>